<mxfile host="app.diagrams.net" modified="2024-05-30T15:43:55.537Z" agent="Mozilla/5.0 (Macintosh; Intel Mac OS X 10_15_7) AppleWebKit/537.36 (KHTML, like Gecko) Chrome/124.0.0.0 Safari/537.36" version="24.0.2" etag="ALhyrSfAy8jBvTWsv3AW" type="github">
  <diagram name="第 1 页" id="WZUUEtEiYAOvaGIoUnwS">
    <mxGraphModel>
      <root>
        <mxCell id="0" />
        <mxCell id="1" parent="0" />
      </root>
    </mxGraphModel>
  </diagram>
</mxfile>
